<svg xmlns="http://www.w3.org/2000/svg" xml:space="preserve" width="1500" height="210" data-id="lg_iqoD0sSn4nmuyrGnFs" data-version="1" viewBox="0 0 1500 210"><g data-padding="20"><g transform="translate(10 3.763)scale(.96416)"><rect width="441.385" height="217.508" x="196.931" y="-443.988" fill="#ffe8f0" rx="0" ry="0" transform="matrix(.88 0 0 .88 324.61 399.97)"/><path fill="#001f3f" d="M941.713.233q-1.133 0-2.276.033V.233H505.66c-9.457 0-17.116 7.659-17.116 17.116v175.303c0 9.457 7.66 17.115 17.116 17.115h433.777v-.034q1.143.034 2.276.034c57.864 0 104.761-46.908 104.761-104.772S999.577.233 941.714.233m-58.265 170.152c0 15.834-12.836 28.67-28.672 28.67H511.61a11.544 11.544 0 0 1-11.566-11.555v-165c0-6.383 5.172-11.556 11.566-11.556h343.156c15.841 0 28.683 12.842 28.683 28.683Z"/><rect width="272.29" height="158.449" x="231.364" y="-374.229" fill="none" rx="0" ry="0" transform="translate(306.61 400.05)"/><path fill="#001f3f" d="M580.61 91.834q-2.38 2.63-5.86 4.18-3.49 1.56-7.18 1.56-8.61 0-13.28-7.42-4.68-7.42-4.68-21.03 0-13.7 4.68-21.16 4.67-7.46 13.36-7.46 4.76 0 8.7 2.17 3.93 2.18 6.39 6.19 2.46 4.1 3.61 10.42l1.15-.33-.82-18.45h-1.07l-1.97 3.94q-4.75-2.55-8.65-3.73-3.89-1.19-7.58-1.19-7.05 0-12.96 3.93-5.9 3.94-9.3 10.74-3.41 6.81-3.41 14.93 0 8.2 3.41 14.96 3.4 6.77 9.34 10.7 5.95 3.94 13.08 3.94 4.02 0 8.33-1.56 4.3-1.56 7.99-4.26l2.79 4.51h1.06v-18.86l-1.06-.17q-2.05 8.94-6.07 13.45m43.21 4.27 5.01.65v.66h-15.34v-.66l5-.65v-20.91q0-3.37-.16-4.88-.16-1.52-.66-2.5-.65-1.4-2.13-2.18-1.47-.78-3.44-.78-4.27 0-7.38 3.53v27.72l5 .65v.66h-15.33v-.66l5-.65v-52.24l-4.84-1.8v-.58l9.51-3.19h.66v28.86q2.54-2.62 5.29-3.98 2.74-1.35 5.45-1.35 2.46 0 4.47 1.07 2.01 1.06 2.99 2.95.58 1.06.74 2.91.16 1.84.16 6.44Zm11.57-46.09q0-1.72 1.1-2.83 1.11-1.1 2.83-1.1t2.83 1.1q1.11 1.11 1.11 2.83t-1.11 2.83-2.83 1.11-2.83-1.11q-1.1-1.11-1.1-2.83m7.05 46.09v-34.28h-.66l-9.51 3.2v.57l4.84 1.81v28.7l-5 .65v.66h15.33v-.66Zm38.05-.01 4.92.65v.66h-15.26v-.66l5.01-.65v-20.91q0-3.2-.17-4.76-.16-1.56-.65-2.62-.66-1.4-2.18-2.18-1.51-.78-3.48-.78-4.18 0-7.46 3.53v27.72l5 .65v.66h-15.34v-.66l5.01-.65v-28.29l-4.84-1.81v-.57l9.26-3.2h.66v5.17q5.25-5.58 10.99-5.58 2.54 0 4.63 1.11 2.09 1.1 2.99 2.91.58 1.06.74 2.91.17 1.84.17 6.44Zm53.53 0 5.09.65v.66h-15.42v-.66l5-.65v-20.91q0-3.2-.16-4.76-.17-1.56-.58-2.62-1.23-2.96-4.92-2.96-3.93 0-6.64 3.61.17 2.79.17 6.73v20.91l5.08.65v.66h-15.5v-.66l5.09-.65v-20.91q0-3.2-.17-4.76-.16-1.56-.57-2.62-1.23-2.96-4.92-2.96-3.86 0-6.48 3.37v27.88l5 .65v.66h-15.25v-.66l4.92-.65v-28.7l-4.84-1.81v-.57l9.27-3.2h.65v5.49q4.84-5.49 10.09-5.49 4.76 0 6.72 4.02.33.65.58 1.64 5-5.66 10.17-5.66 4.75 0 6.72 4.02.57 1.06.74 2.99.16 1.93.16 6.36Zm16.82 1.89q-3.11 0-5.12-2.17t-2.01-5.62q0-4.1 3.73-6.56t12.67-4.26v-7.46q0-4.76-1.07-6.6-1.06-1.85-3.69-1.85-2.54 0-4.1 1.35-1.56 1.36-1.56 3.65l.09 2.22q0 2.05-.78 3.24-.78 1.18-2.18 1.18-1.23 0-2-.82-.78-.82-.78-2.13 0-1.97 1.92-4.3 1.93-2.34 4.96-3.9 3.69-2.05 7.63-2.05 2.3 0 3.9.9 1.59.91 2.33 2.55.41 1.06.54 2.62.12 1.56.12 5.99v15.66q0 2.95.57 4.06.58 1.1 2.05 1.1 2.22 0 3.28-1.55l.33.16q-.98 2.05-2.62 3.16-1.64 1.1-3.53 1.1-2.13 0-3.53-1.27-1.39-1.27-1.55-3.4l-.25-.08q-1.89 2.38-4.35 3.73t-5 1.35m3.53-3.11q1.72 0 3.24-.78 1.51-.78 2.5-2.26v-11.56q-4.27 1.07-6.6 2.13-2.34 1.07-3.32 2.54-.99 1.48-.99 3.69 0 2.87 1.4 4.56 1.39 1.68 3.77 1.68m38.13-3.45-8.69-24.6q-.58-1.64-.58-2.13 0-.66.86-.94.86-.29 3.82-.45v-.66h-15.83v.66q2.79.16 3.81.69 1.03.54 1.68 2.09l12.63 32.8-3.2 9.76q-1.06 3.2-1.96 4.55-.91 1.36-1.97 1.36-.74 0-1.11-.54-.37-.53-.7-1.68-.41-1.47-1.06-2.29-.66-.82-2.22-.82-1.64 0-2.58.98t-.94 2.62q0 2.05 1.56 3.41 1.55 1.35 3.85 1.35 2.79 0 4.92-2.38 1.72-1.64 3.12-5.98l13.69-40.27q.9-2.78 2.54-3.93t5.58-1.72v-.66h-14.68v.66q3.28.49 4.51 1.1 1.23.62 1.23 1.93 0 .9-.49 2.54l-7.46 22.55Zm-232.39 73.09q5.08 0 9.14-2.13 4.06-2.14 6.36-5.87 2.29-3.73 2.29-8.48 0-4.27-1.84-7.18-1.85-2.91-4.84-4.88t-7.91-4.18q-5.5-2.54-8.49-4.35-2.99-1.8-4.67-4.26t-1.68-6.07q0-5 3.03-7.91t8.12-2.91q8.44 0 12.54 8.44 2.05 4.19 3.37 9.68l.82-.25-.82-17.87h-1.07l-1.97 3.93q-3.36-2.62-6.27-3.77t-6.27-1.15q-4.84 0-8.65 2.01-3.82 2.01-5.99 5.58t-2.17 8.08q0 4.42 2.01 7.5 2 3.07 5.04 5 3.03 1.93 7.54 3.9 5.5 2.37 8.53 4.18 3.03 1.8 4.8 4.34 1.76 2.55 1.76 6.24 0 5.24-3.32 8.32-3.32 3.07-9.23 3.07-6.88 0-11.07-4.67-2.05-2.3-3.32-5.41-1.27-3.12-2.5-8.69l-.74.16 1.07 19.6h1.07l1.72-4.51q2.54 2.13 6.15 3.32t7.46 1.19m33.21-.74q-3.12 0-5.12-2.17-2.01-2.18-2.01-5.62 0-4.1 3.73-6.56t12.67-4.26v-7.47q0-4.75-1.07-6.6-1.07-1.84-3.69-1.84-2.54 0-4.1 1.35t-1.56 3.65l.08 2.21q0 2.05-.77 3.24-.78 1.19-2.18 1.19-1.23 0-2.01-.82t-.78-2.13q0-1.97 1.93-4.3 1.93-2.34 4.96-3.9 3.69-2.05 7.63-2.05 2.29 0 3.89.9t2.34 2.54q.41 1.07.53 2.63.13 1.56.13 5.98v15.67q0 2.95.57 4.06.57 1.1 2.05 1.1 2.21 0 3.28-1.56l.33.17q-.99 2.05-2.63 3.16-1.64 1.1-3.52 1.1-2.13 0-3.53-1.27-1.39-1.27-1.56-3.4l-.24-.08q-1.89 2.37-4.35 3.73-2.46 1.35-5 1.35m3.53-3.12q1.72 0 3.24-.77 1.51-.78 2.5-2.26v-11.56q-4.27 1.06-6.6 2.13-2.34 1.07-3.33 2.54-.98 1.48-.98 3.69 0 2.87 1.39 4.55 1.4 1.68 3.78 1.68m56.41-32.22h13.2v.65q-3.6.58-5.08 1.69-1.48 1.1-2.38 3.97l-9.35 28.7h-.9l-8.53-25.01-8.2 25.01h-.9l-11.07-31.57q-.33-1.06-.74-1.56-.41-.49-1.27-.73-.86-.25-2.91-.5v-.65h14.68v.65q-2.46.17-3.24.54t-.78 1.1q0 .58.49 1.97l7.14 21.81h.33l5.82-17.87-1.48-4.35q-.57-1.56-1.43-2.25-.86-.7-3.08-.95v-.65h13.86v.65q-2.46.17-3.24.54t-.78 1.1q0 .58.49 1.97l7.22 21.81h.33l6.31-19.84q.49-1.64.49-2.54 0-1.31-1.06-1.93-1.07-.61-3.94-1.11Zm22.88 35.34q-3.12 0-5.12-2.17-2.01-2.18-2.01-5.62 0-4.1 3.73-6.56t12.67-4.26v-7.47q0-4.75-1.07-6.6-1.07-1.84-3.69-1.84-2.54 0-4.1 1.35t-1.56 3.65l.08 2.21q0 2.05-.77 3.24-.78 1.19-2.18 1.19-1.23 0-2.01-.82t-.78-2.13q0-1.97 1.93-4.3 1.93-2.34 4.96-3.9 3.69-2.05 7.63-2.05 2.29 0 3.89.9t2.34 2.54q.41 1.07.53 2.63.13 1.56.13 5.98v15.67q0 2.95.57 4.06.57 1.1 2.05 1.1 2.21 0 3.28-1.56l.33.17q-.99 2.05-2.63 3.16-1.64 1.1-3.52 1.1-2.13 0-3.53-1.27-1.39-1.27-1.56-3.4l-.24-.08q-1.89 2.37-4.35 3.73-2.46 1.35-5 1.35m3.53-3.12q1.72 0 3.24-.77 1.51-.78 2.5-2.26v-11.56q-4.27 1.06-6.6 2.13-2.34 1.07-3.33 2.54-.98 1.48-.98 3.69 0 2.87 1.39 4.55 1.4 1.68 3.78 1.68m49.52 1.23 4.92.66v.66h-15.25v-.66l5-.66v-20.91q0-3.19-.16-4.75t-.66-2.63q-.65-1.39-2.17-2.17t-3.48-.78q-4.19 0-7.47 3.53v27.71l5.01.66v.66h-15.34v-.66l5-.66v-28.29l-4.83-1.8v-.57l9.26-3.2h.66v5.16q5.25-5.57 10.99-5.57 2.54 0 4.63 1.11 2.09 1.1 2.99 2.91.58 1.06.74 2.91.16 1.84.16 6.43Zm17.22-41.32-9.02 8.69.17.41h3.85v26.24q0 2.54.58 4.1.57 1.56 1.96 2.54 2.05 1.48 4.68 1.48 2.54 0 4.8-1.48 2.25-1.48 3.48-4.02l-.33-.24q-1.47 1.47-2.7 2.13-1.23.65-2.55.65-2.7 0-3.69-1.96-.9-1.4-.9-4.27v-25.09h8.86l.49-1.31h-9.35v-7.79Z"/><path fill="#ff8532" d="M985.14 68.495h-43.8a3.65 3.65 0 0 0-3.65 3.65V88.35a3.65 3.65 0 0 0 3.65 3.65v6.023c0 10.146 9.817 18.25 21.9 18.25s21.9-8.214 21.9-18.25v-6.06a3.65 3.65 0 0 0 3.65-3.65v-16.17a3.65 3.65 0 0 0-3.65-3.65m-21.9 40.589c-8.067 0-14.6-4.964-14.6-10.95v-9.855l4.781-2.81 14.162 7.08a3.65 3.65 0 0 0 3.248 0l6.534-3.248h.474v8.54c0 6.279-6.534 11.243-14.6 11.243m6.168-10.147a3.65 3.65 0 0 1-1.606 4.89 10.95 10.95 0 0 1-4.562 1.169 10.95 10.95 0 0 1-4.745-1.131 3.65 3.65 0 0 1-1.643-4.892 3.65 3.65 0 0 1 4.928-1.642 3.29 3.29 0 0 0 2.92 0 3.65 3.65 0 0 1 4.708 1.606m3.65 34.2a3.65 3.65 0 0 1-5.183 0l-1.058-1.095v5.803a3.65 3.65 0 0 1-7.3 0v-5.803l-1.058 1.095a3.65 3.65 0 0 1-5.183 0 3.65 3.65 0 0 1 0-5.183l7.3-7.3a3.65 3.65 0 0 1 2.336-1.058h.73a3.65 3.65 0 0 1 1.934.876l.183.183 7.3 7.3a3.65 3.65 0 0 1 .073 5.183Z"/></g><path fill="transparent" stroke="transparent" d="M471 0h558v210H471z"/></g></svg>